<?xml version="1.0" standalone="no"?>
<!DOCTYPE svg PUBLIC "-//W3C//DTD SVG 20010904//EN"
 "http://www.w3.org/TR/2001/REC-SVG-20010904/DTD/svg10.dtd">
<svg version="1.0" xmlns="http://www.w3.org/2000/svg" fill="currentColor"
 width="142px" height="22px" viewBox="0 0 851.000000 132.000000"
 preserveAspectRatio="xMidYMid meet">

<g transform="translate(0.000000,132.000000) scale(0.100000,-0.100000)">
<path d="M1460 670 c0 -427 3 -650 10 -650 7 0 10 223 10 650 0 427 -3 650
-10 650 -7 0 -10 -223 -10 -650z"/>
<path d="M294 1053 c-32 -149 -52 -166 -179 -161 -44 2 -69 -1 -72 -8 -5 -16
31 -24 112 -24 100 0 128 19 154 106 12 36 21 77 21 90 0 34 -28 31 -36 -3z"/>
<path d="M351 1020 c-6 -28 -11 -74 -11 -101 0 -43 4 -55 29 -78 31 -29 128
-71 163 -71 39 0 14 33 -39 51 -115 39 -131 62 -113 158 13 72 13 91 -4 91 -9
0 -18 -19 -25 -50z"/>
<path d="M2091 961 c-47 -12 -83 -41 -104 -82 -44 -89 -41 -347 5 -431 32 -58
74 -78 166 -78 82 0 116 13 156 60 34 41 47 96 44 183 l-3 72 -100 0 -100 0
-3 -44 c-4 -50 6 -61 56 -61 27 0 32 -4 32 -24 0 -13 -9 -35 -21 -50 -16 -21
-29 -26 -63 -26 -71 0 -80 19 -84 163 -4 145 6 190 47 207 47 19 95 -1 115
-50 15 -37 16 -38 58 -33 80 9 83 16 44 99 -30 65 -76 95 -154 100 -31 2 -72
-1 -91 -5z"/>
<path d="M2770 961 l-25 -7 0 -206 c0 -194 -1 -208 -21 -235 -16 -22 -31 -29
-63 -31 -83 -6 -92 20 -93 265 -1 105 -4 197 -8 203 -4 7 -27 10 -56 8 l-49
-3 -3 -115 c-1 -63 1 -167 7 -232 15 -190 55 -238 199 -238 45 0 84 6 101 15
39 20 78 69 91 113 15 56 13 462 -2 462 -7 0 -22 2 -33 4 -11 3 -31 1 -45 -3z"/>
<path d="M3533 960 c-78 -18 -122 -82 -123 -179 0 -49 3 -57 38 -91 20 -20 60
-45 87 -55 112 -40 134 -53 141 -79 4 -17 0 -35 -10 -51 -13 -20 -25 -25 -59
-25 -54 0 -77 16 -86 60 -7 35 -7 35 -61 35 l-55 0 1 -40 c1 -53 27 -106 67
-136 35 -25 133 -38 202 -25 74 14 131 116 115 205 -11 63 -49 95 -151 132
-100 36 -124 56 -115 93 10 40 50 61 94 50 29 -7 41 -18 58 -49 20 -38 22 -40
70 -40 44 0 49 2 52 24 5 36 -26 107 -59 135 -49 42 -127 55 -206 36z"/>
<path d="M4007 958 c-67 -18 -115 -89 -116 -173 -1 -71 49 -122 164 -164 86
-32 105 -46 105 -80 0 -38 -28 -61 -77 -61 -45 0 -69 20 -82 66 -7 26 -12 29
-56 32 -26 2 -52 -1 -57 -6 -14 -14 12 -110 39 -143 40 -47 73 -59 160 -59
114 0 158 31 184 130 14 55 1 113 -35 151 -14 15 -66 42 -121 64 -109 42 -130
65 -102 109 36 54 118 40 150 -27 17 -37 19 -38 65 -35 36 2 48 7 50 21 13 69
-48 157 -123 176 -52 13 -96 13 -148 -1z"/>
<path d="M4778 962 l-168 -2 0 -55 0 -54 63 -3 62 -3 0 -230 0 -230 55 0 55 0
3 233 2 232 59 0 c38 0 60 4 63 13 8 22 -4 96 -15 99 -7 2 -87 2 -179 0z"/>
<path d="M6418 959 c-10 -5 -24 -31 -32 -57 -8 -26 -46 -146 -85 -267 -39
-120 -71 -227 -71 -237 0 -15 9 -18 54 -18 l55 0 18 58 c15 48 22 57 41 56 12
0 53 -1 90 -2 l69 -2 12 -42 c18 -61 27 -68 82 -68 39 0 49 3 49 17 0 33 -162
513 -186 551 -16 24 -64 30 -96 11z m92 -321 l9 -28 -55 0 c-30 0 -54 2 -54 4
0 8 42 141 48 150 5 9 27 -46 52 -126z"/>
<path d="M6816 961 l-29 -6 -4 -286 -5 -286 48 -6 c27 -3 52 -3 56 0 5 2 8 78
8 169 0 90 3 164 8 164 4 0 24 -30 45 -68 20 -37 63 -110 95 -162 56 -91 60
-95 102 -102 23 -4 47 -5 51 -2 5 3 9 136 9 295 l0 290 -52 -3 -53 -3 -5 -165
-5 -165 -46 75 c-26 41 -55 91 -64 110 -10 19 -34 60 -54 90 -19 30 -35 56
-36 56 -2 7 -46 10 -69 5z"/>
<path d="M7324 959 c-4 -6 -9 -139 -11 -295 l-5 -284 55 0 54 0 8 280 c5 215
4 284 -5 295 -15 18 -86 20 -96 4z"/>
<path d="M7544 959 c-4 -6 -9 -139 -11 -295 l-5 -284 56 0 56 0 2 173 3 172
60 -103 c82 -142 93 -139 197 66 6 12 15 22 20 22 4 0 8 -74 8 -165 l0 -165
56 0 56 0 -5 286 c-3 158 -10 291 -15 296 -5 5 -26 8 -47 6 -35 -3 -41 -8 -76
-66 -21 -34 -55 -94 -76 -132 -21 -39 -40 -70 -43 -70 -3 0 -25 39 -49 88 -23
48 -56 108 -73 135 -27 43 -34 47 -68 47 -22 0 -42 -5 -46 -11z"/>
<path d="M8163 964 c-10 -4 -13 -73 -13 -295 l0 -289 170 0 170 0 6 24 c3 13
4 37 2 52 l-3 29 -117 3 -118 3 0 69 0 69 113 3 112 3 3 53 3 52 -115 0 -116
0 0 55 0 55 114 0 114 0 4 48 c3 26 1 52 -3 57 -8 11 -303 19 -326 9z"/>
<path d="M2968 953 c-2 -5 -4 -136 -3 -293 l0 -285 170 1 170 1 0 54 c0 62 14
56 -142 58 l-93 1 0 65 0 65 103 0 c56 0 107 4 113 8 18 11 28 102 12 103 -7
1 -22 2 -33 3 -11 1 -57 3 -102 4 l-83 2 0 55 0 55 116 0 115 0 -3 53 -3 52
-167 3 c-91 1 -168 -1 -170 -5z"/>
<path d="M5060 671 l0 -288 47 -6 c27 -3 51 -3 55 0 5 2 8 56 8 119 l0 114 79
0 c95 0 95 1 89 -133 l-3 -92 45 -6 c25 -4 50 -2 56 3 8 6 12 94 13 293 l2
285 -55 0 -55 0 -3 -117 -3 -118 -82 -3 -83 -3 0 121 0 120 -55 0 -55 0 0
-289z"/>
<path d="M5560 953 c-1 -5 -3 -135 -6 -290 l-4 -283 175 0 175 0 0 55 0 55
-115 0 -115 0 0 70 0 69 113 3 112 3 0 50 0 50 -112 3 -113 3 0 54 0 55 115 0
115 0 0 55 0 55 -170 0 c-93 0 -170 -3 -170 -7z"/>
<path d="M686 912 c-9 -14 31 -190 51 -224 35 -60 63 -72 178 -76 115 -5 155
1 155 22 0 12 -22 14 -112 13 -169 -3 -194 17 -226 178 -15 81 -31 110 -46 87z"/>
<path d="M604 853 c15 -118 17 -180 7 -205 -14 -37 -59 -63 -163 -96 -50 -15
-88 -32 -88 -39 0 -38 195 23 258 80 35 32 44 83 32 185 -12 106 -17 122 -37
122 -13 0 -14 -9 -9 -47z"/>
<path d="M45 830 c-12 -20 7 -30 60 -30 62 0 101 -15 108 -40 7 -27 -9 -114
-28 -150 -17 -32 -9 -60 13 -46 19 12 52 116 52 164 -1 56 -14 76 -63 97 -41
17 -133 20 -142 5z"/>
<path d="M328 770 c-42 -25 -74 -210 -37 -218 13 -2 17 9 21 61 6 69 23 114
50 131 14 8 33 5 83 -12 59 -22 85 -23 85 -3 0 4 -20 17 -45 29 -48 23 -127
29 -157 12z"/>
<path d="M864 549 c-16 -5 -41 -20 -55 -35 -21 -23 -24 -34 -23 -107 0 -109
46 -240 73 -212 6 6 0 37 -14 80 -31 88 -34 194 -7 218 26 23 92 37 163 35 53
-3 64 0 67 15 3 15 -6 17 -85 16 -48 0 -102 -5 -119 -10z"/>
<path d="M460 467 c-41 -15 -66 -29 -68 -40 -4 -22 4 -22 92 8 41 14 88 25
104 25 61 0 102 -87 102 -216 0 -75 9 -95 30 -69 18 22 5 171 -19 229 -31 71
-52 86 -118 86 -34 0 -85 -10 -123 -23z"/>
</g>
</svg>
